<svg width="20" height="20" viewBox="0 0 20 20" fill="none" xmlns="http://www.w3.org/2000/svg">
<path d="M17.1768 0.337891C17.7463 0.337891 18.2924 0.564102 18.695 0.966762C19.0977 1.36942 19.3239 1.91554 19.3239 2.48499V17.5147C19.3239 18.0841 19.0977 18.6303 18.695 19.0329C18.2924 19.4356 17.7463 19.6618 17.1768 19.6618H2.1471C1.57765 19.6618 1.03153 19.4356 0.628871 19.0329C0.226212 18.6303 0 18.0841 0 17.5147V2.48499C0 1.91554 0.226212 1.36942 0.628871 0.966762C1.03153 0.564102 1.57765 0.337891 2.1471 0.337891H17.1768ZM16.64 16.9779V11.2881C16.64 10.3599 16.2713 9.46972 15.615 8.81339C14.9586 8.15705 14.0685 7.78833 13.1403 7.78833C12.2277 7.78833 11.1649 8.34658 10.6496 9.18394V7.9923H7.65441V16.9779H10.6496V11.6853C10.6496 10.8587 11.3152 10.1823 12.1419 10.1823C12.5405 10.1823 12.9228 10.3407 13.2046 10.6226C13.4865 10.9044 13.6448 11.2867 13.6448 11.6853V16.9779H16.64ZM4.16537 6.30683C4.64371 6.30683 5.10245 6.11681 5.44069 5.77858C5.77892 5.44034 5.96894 4.9816 5.96894 4.50327C5.96894 3.50486 5.16378 2.68897 4.16537 2.68897C3.68419 2.68897 3.22272 2.88011 2.88247 3.22036C2.54222 3.56061 2.35108 4.02208 2.35108 4.50327C2.35108 5.50167 3.16697 6.30683 4.16537 6.30683ZM5.65761 16.9779V7.9923H2.68388V16.9779H5.65761Z" fill="#A0A3BD"/>
</svg>
