<svg width="144" height="40" viewBox="0 0 144 40" fill="none" xmlns="http://www.w3.org/2000/svg">
<g clip-path="url(#clip0_3852_94062)">
<path d="M37.5376 33.8873C36.8132 35.1352 35.8497 36.2278 34.7023 37.1026C33.5597 37.9744 32.2574 38.614 30.8689 38.9852C29.4862 39.3583 28.0434 39.4541 26.6235 39.2673C25.2035 39.0804 23.8346 38.6145 22.5955 37.8965C21.3476 37.1826 20.2539 36.228 19.3778 35.0881C18.5017 33.9482 17.8607 32.6457 17.4919 31.2562C17.4125 30.967 17.3502 30.6891 17.2991 30.3886L17.8945 30.2411C19.8885 29.708 21.7369 28.7329 23.3026 27.388C24.8684 26.0431 26.1113 24.3631 26.9392 22.4724C27.1362 22.0305 27.3085 21.5781 27.4552 21.1171C27.6096 20.6328 27.7383 20.1406 27.8408 19.6427C27.9852 18.9288 28.0724 18.2044 28.1017 17.4766C29.7503 17.4856 31.3757 17.866 32.8572 18.5895C34.3386 19.313 35.6379 20.3611 36.6586 21.6558C36.9755 22.0544 37.2635 22.4751 37.5206 22.9147C37.7638 23.3294 37.9761 23.7616 38.1557 24.2076C38.3455 24.655 38.5028 25.1155 38.6263 25.5855C39.003 26.9726 39.1007 28.4205 38.9138 29.8455C38.7269 31.2706 38.2591 32.6444 37.5376 33.8873V33.8873Z" fill="#1FCFC3"/>
<path d="M25.2777 16.9153C25.2777 17.2272 25.2777 17.5334 25.238 17.8396C25.205 18.2201 25.152 18.5987 25.0792 18.9737C24.9771 19.5214 24.8311 20.0599 24.6426 20.5842C24.0485 22.2536 23.058 23.7538 21.7562 24.9559C20.4543 26.158 18.8801 27.026 17.1687 27.4853V27.4853C16.6948 27.6092 16.2138 27.7039 15.7284 27.7688C15.256 27.8253 14.7807 27.8537 14.305 27.8539C11.9037 27.8438 9.57214 27.0454 7.66866 25.5814C5.76518 24.1174 4.39512 22.0689 3.76902 19.7506C3.02563 16.9504 3.42222 13.9698 4.87195 11.4615C6.32168 8.95317 8.70637 7.1216 11.5037 6.36791C12.4282 6.11851 13.3816 5.99267 14.3391 5.99366C16.7266 5.99855 19.0476 6.78084 20.951 8.22221C21.4 8.56632 21.8209 8.94556 22.2099 9.35633C22.7021 9.8634 23.1428 10.4181 23.5255 11.0122C24.1436 11.9557 24.6087 12.9911 24.9034 14.08C24.9828 14.3692 25.0452 14.647 25.0962 14.9419C25.1842 15.41 25.2392 15.8837 25.2607 16.3596C25.272 16.5524 25.2777 16.7225 25.2777 16.9153Z" fill="#44BDFF"/>
</g>
<path d="M72.6968 19.1715C72.6968 15.7915 71.5483 12.9693 69.2184 10.6722C66.8885 8.37514 64.0663 7.22659 60.7519 7.22659C57.4376 7.22659 54.6154 8.37514 52.2855 10.6722C49.9556 12.9693 48.8071 15.7915 48.8071 19.1715C48.8071 22.5515 49.9556 25.3736 52.2855 27.6707C54.6154 29.9678 57.4376 31.1164 60.7519 31.1164C62.5543 31.1164 64.2957 30.7203 65.9468 29.9575C66.0586 29.9059 66.1912 29.9299 66.276 30.0192L68.4062 32.263C68.5114 32.3739 68.6856 32.3814 68.7999 32.28L72.1497 29.3089C72.2695 29.2026 72.2775 29.0183 72.1675 28.9019L70.2415 26.8659C70.1441 26.763 70.138 26.6041 70.2246 26.492C71.8628 24.3717 72.6968 21.9415 72.6968 19.1715ZM60.7519 25.9971C58.8486 25.9971 57.2407 25.3736 55.9609 24.0938C54.6811 22.814 54.0576 21.1732 54.0576 19.1715C54.0576 17.1697 54.6811 15.529 55.9609 14.2491C57.2407 12.9693 58.8486 12.3458 60.7519 12.3458C62.6553 12.3458 64.2304 12.9693 65.5102 14.2491C66.79 15.529 67.4463 17.1697 67.4463 19.1715C67.4463 20.3816 67.1809 21.4855 66.6738 22.531C66.5896 22.7048 66.3584 22.7349 66.226 22.5942L63.008 19.1751C62.9029 19.0634 62.7281 19.0555 62.6134 19.1573L59.2643 22.1277C59.1446 22.2339 59.1364 22.4181 59.2463 22.5345L61.9948 25.4462C62.1505 25.6112 62.0589 25.8829 61.8341 25.9134C61.4503 25.9656 61.0932 25.9971 60.7519 25.9971Z" fill="#223560"/>
<path d="M91.598 22.0652C91.5236 22.3421 91.1321 22.3462 91.0519 22.0708L88.8349 14.4534C88.7997 14.3324 88.6888 14.2491 88.5627 14.2491H84.3941C84.268 14.2491 84.1571 14.3324 84.1218 14.4534L81.9048 22.0708C81.8247 22.3462 81.4332 22.3421 81.3588 22.0652L79.3154 14.4591C79.2821 14.3352 79.1698 14.2491 79.0415 14.2491H74.3969C74.2048 14.2491 74.0683 14.4361 74.1268 14.6191L79.1959 30.4598C79.2334 30.5773 79.3426 30.657 79.4659 30.657H83.6421C83.7673 30.657 83.8778 30.5748 83.9137 30.4548L86.2068 22.8017C86.2875 22.5321 86.6692 22.5321 86.75 22.8017L89.0431 30.4548C89.079 30.5748 89.1894 30.657 89.3147 30.657H93.4909C93.6142 30.657 93.7233 30.5773 93.7609 30.4598L98.8299 14.6191C98.8885 14.4361 98.752 14.2491 98.5599 14.2491H93.9152C93.787 14.2491 93.6747 14.3352 93.6414 14.4591L91.598 22.0652Z" fill="#223560"/>
<path d="M105.43 11.952C106.612 10.7707 106.612 8.93301 105.43 7.78446C104.282 6.6031 102.444 6.6031 101.263 7.78446C100.114 8.93301 100.114 10.7707 101.263 11.952C102.444 13.1006 104.282 13.1006 105.43 11.952ZM105.541 30.657C105.697 30.657 105.824 30.53 105.824 30.3734V14.5327C105.824 14.3761 105.697 14.2491 105.541 14.2491H101.185C101.029 14.2491 100.902 14.3761 100.902 14.5327V30.3734C100.902 30.53 101.029 30.657 101.185 30.657H105.541Z" fill="#223560"/>
<path d="M116.751 23.8305C116.666 24.0907 116.298 24.0907 116.212 23.8305L113.133 14.4443C113.095 14.3279 112.986 14.2491 112.863 14.2491H108.029C107.831 14.2491 107.694 14.4459 107.763 14.6311L113.624 30.4718C113.665 30.5831 113.771 30.657 113.89 30.657H119.074C119.192 30.657 119.298 30.5831 119.339 30.4718L125.201 14.6311C125.269 14.4459 125.132 14.2491 124.935 14.2491H120.1C119.977 14.2491 119.869 14.3279 119.83 14.4443L116.751 23.8305Z" fill="#223560"/>
<path d="M138.419 15.0226C138.419 15.2862 138.078 15.4176 137.881 15.243C136.779 14.2674 135.321 13.7897 133.53 13.7897C131.364 13.7897 129.526 14.6429 127.984 16.3165C126.441 17.9901 125.687 20.0247 125.687 22.4531C125.687 24.8814 126.441 26.9488 127.984 28.6224C129.526 30.296 131.364 31.1164 133.53 31.1164C135.321 31.1164 136.779 30.6388 137.881 29.6631C138.078 29.4885 138.419 29.6199 138.419 29.8835V30.3734C138.419 30.53 138.546 30.657 138.703 30.657H143.058C143.215 30.657 143.341 30.53 143.341 30.3734V14.5327C143.341 14.3761 143.215 14.2491 143.058 14.2491H138.703C138.546 14.2491 138.419 14.3761 138.419 14.5327V15.0226ZM131.692 25.3736C130.97 24.6517 130.609 23.6672 130.609 22.4531C130.609 21.2389 130.97 20.2544 131.692 19.5325C132.414 18.8105 133.366 18.4495 134.514 18.4495C135.663 18.4495 136.614 18.8105 137.336 19.5325C138.058 20.2544 138.419 21.2389 138.419 22.4531C138.419 23.6672 138.058 24.6517 137.336 25.3736C136.614 26.0956 135.663 26.4566 134.514 26.4566C133.366 26.4566 132.414 26.0956 131.692 25.3736Z" fill="#223560"/>
<defs>
<clipPath id="clip0_3852_94062">
<rect width="42.0023" height="39.3598" fill="white"/>
</clipPath>
</defs>
</svg>
