<svg width="98" height="92" viewBox="0 0 98 92" fill="none" xmlns="http://www.w3.org/2000/svg">
<g clip-path="url(#clip0_3110_42280)">
<path d="M84.1167 48.2675C81.4031 44.2548 77.8069 40.9164 73.6037 38.5083C68.6238 35.6272 62.959 34.1425 57.2061 34.2105C57.0342 33.232 56.8226 32.2402 56.5582 31.2484C55.1436 25.8766 52.3438 20.9702 48.4387 17.0195C49.8216 13.1287 52.1292 9.63227 55.1631 6.83111C58.1969 4.02994 61.866 2.00799 65.8545 0.939308C68.0118 0.365001 70.2341 0.0716457 72.4665 0.0665283C76.9339 0.0727275 81.3211 1.25392 85.1878 3.49152C88.097 5.15748 90.6468 7.3839 92.6897 10.0419C94.7326 12.7 96.228 15.7368 97.0893 18.9767C97.6697 21.1327 97.9631 23.3558 97.9621 25.5886C97.9533 30.2744 96.6574 34.8678 94.2158 38.8672C91.7741 42.8667 88.2806 46.1184 84.1167 48.2675V48.2675Z" fill="#325CF4"/>
<path d="M79.6337 79.0792C77.9444 81.9891 75.6975 84.5371 73.0217 86.5771C70.3572 88.6101 67.3202 90.1016 64.0824 90.9674C60.8579 91.8374 57.4932 92.0609 54.182 91.6252C50.8708 91.1894 47.6784 90.103 44.7888 88.4284C41.8787 86.7636 39.3282 84.5376 37.2852 81.8794C35.2422 79.2212 33.7473 76.1837 32.8873 72.9433C32.7022 72.2689 32.5567 71.6209 32.4377 70.92L33.8262 70.5762C38.4762 69.333 42.7866 67.059 46.4379 63.9228C50.0891 60.7865 52.9876 56.8686 54.9183 52.4595C55.3777 51.4292 55.7794 50.374 56.1216 49.299C56.4817 48.1696 56.7819 47.0219 57.0209 45.8608C57.3576 44.1958 57.561 42.5067 57.6292 40.8093C61.4738 40.8303 65.2643 41.7174 68.719 43.4047C72.1736 45.092 75.2037 47.536 77.584 50.5553C78.3228 51.4849 78.9945 52.466 79.594 53.491C80.1612 54.4582 80.6562 55.466 81.0751 56.506C81.5177 57.5494 81.8845 58.6233 82.1727 59.7194C83.051 62.9539 83.2788 66.3305 82.843 69.6537C82.4071 72.9769 81.3163 76.1805 79.6337 79.0792V79.0792Z" fill="#1FCFC3"/>
<path d="M51.0436 39.5002C51.0436 40.2275 51.0436 40.9416 50.951 41.6557C50.874 42.5431 50.7504 43.4259 50.5807 44.3004C50.3426 45.5776 50.0021 46.8335 49.5625 48.056C48.1772 51.9491 45.8673 55.4475 42.8314 58.2508C39.7955 61.0541 36.1244 63.0783 32.1335 64.1494V64.1494C31.0284 64.4384 29.9067 64.6592 28.7746 64.8106C27.6731 64.9422 26.5647 65.0084 25.4554 65.009C19.8555 64.9854 14.4183 63.1235 9.97942 59.7096C5.54051 56.2956 2.34552 51.5183 0.885476 46.1121C-0.848115 39.5822 0.0767421 32.6314 3.4575 26.782C6.83825 20.9326 12.3993 16.6614 18.9228 14.9038C21.0786 14.3222 23.3019 14.0287 25.5347 14.031C31.1025 14.0424 36.5151 15.8667 40.9538 19.228C42.0008 20.0305 42.9825 20.9148 43.8895 21.8728C45.0373 23.0552 46.065 24.3487 46.9574 25.7341C48.3989 27.9345 49.4834 30.3491 50.1708 32.8882C50.3559 33.5627 50.5014 34.2106 50.6204 34.8983C50.8256 35.9899 50.9537 37.0946 51.0039 38.2042C51.0303 38.6538 51.0436 39.0506 51.0436 39.5002Z" fill="#44BDFF"/>
</g>
<defs>
<clipPath id="clip0_3110_42280">
<rect width="97.9491" height="91.7868" fill="white" transform="translate(0.0127106 0.0533447)"/>
</clipPath>
</defs>
</svg>
