<svg width="21" height="18" viewBox="0 0 21 18" fill="none" xmlns="http://www.w3.org/2000/svg">
<path d="M18.4569 4.80987C18.4699 4.99261 18.4699 5.17538 18.4699 5.35811C18.4699 10.9317 14.2278 17.3538 6.47427 17.3538C4.08557 17.3538 1.86658 16.6619 0 15.4611C0.339389 15.5003 0.66568 15.5133 1.01813 15.5133C2.98909 15.5133 4.80348 14.8476 6.25236 13.712C4.39884 13.6728 2.84553 12.4589 2.31035 10.7881C2.57144 10.8273 2.83248 10.8534 3.10662 10.8534C3.48514 10.8534 3.8637 10.8012 4.21611 10.7098C2.28428 10.3182 0.835355 8.62134 0.835355 6.57203V6.51984C1.39661 6.83311 2.04931 7.0289 2.74107 7.05498C1.60546 6.29789 0.861471 5.00566 0.861471 3.54372C0.861471 2.76056 1.07028 2.04265 1.43578 1.4161C3.51121 3.97448 6.63089 5.64523 10.129 5.828C10.0638 5.51473 10.0246 5.18844 10.0246 4.86211C10.0246 2.53865 11.9043 0.645996 14.2407 0.645996C15.4546 0.645996 16.5511 1.15506 17.3212 1.9774C18.2741 1.79466 19.1878 1.44222 19.9971 0.959269C19.6838 1.93826 19.0181 2.7606 18.1436 3.28268C18.992 3.19136 19.8144 2.95635 20.5714 2.63006C19.9972 3.46541 19.2792 4.2094 18.4569 4.80987V4.80987Z" fill="#A0A3BD"/>
</svg>
